<?xml version="1.0" standalone="no"?>
<!DOCTYPE svg PUBLIC "-//W3C//DTD SVG 20010904//EN"
 "http://www.w3.org/TR/2001/REC-SVG-20010904/DTD/svg10.dtd">
<svg version="1.0" xmlns="http://www.w3.org/2000/svg"
 width="100.000000pt" height="100.000000pt" viewBox="0 0 100.000000 100.000000"
 preserveAspectRatio="xMidYMid meet">
<metadata>
Created by potrace 1.15, written by Peter Selinger 2001-2017
</metadata>
<g transform="translate(0.000000,100.000000) scale(0.100000,-0.100000)"
fill="#000000" stroke="none">
<path d="M363 814 c-17 -9 -39 -31 -47 -49 -21 -44 -22 -204 -1 -244 19 -37
81 -66 174 -81 85 -14 111 -34 111 -84 0 -54 -21 -67 -99 -64 -57 3 -67 6 -76
25 -6 13 -16 21 -25 19 -8 -3 -34 -10 -57 -16 -48 -12 -54 -30 -28 -80 28 -54
47 -60 187 -60 70 0 138 5 151 11 44 20 57 58 57 169 0 102 0 102 -33 135 -24
24 -48 36 -92 45 -33 6 -82 17 -110 23 l-50 12 0 65 0 65 77 3 c72 3 78 1 90
-21 13 -24 14 -24 66 -9 44 12 52 18 52 39 0 40 -29 84 -65 99 -49 20 -239 19
-282 -2z"/>
</g>
</svg>
