<svg width="276" height="279.89" xmlns="http://www.w3.org/2000/svg">

 <g>
  <title>background</title>
  <rect fill="none" id="canvas_background" height="281.89" width="278" y="-1" x="-1"/>
 </g>
 <g>
  <title>Layer 1</title>
  <g id="svg_15">
   <path stroke="null" fill-opacity="0" id="svg_2" d="m277.000004,275.889998l-274.000016,0l0,-273.999998l274.000016,0l0,273.999998z"/>
   <path fill="#ffd200" id="svg_3" d="m39.263,62.823l4.351,13.393l14.082,0l-11.393,8.277l4.352,13.392l-11.392,-8.277l-11.393,8.277l4.352,-13.392l-11.393,-8.277l14.082,0l4.352,-13.393z"/>
   <path fill="#ffd200" id="svg_4" d="m79.98,21.39l4.351,13.393l14.082,0l-11.392,8.278l4.352,13.392l-11.393,-8.278l-11.393,8.278l4.352,-13.392l-11.393,-8.278l14.082,0l4.352,-13.393z"/>
   <path fill="#ffd200" id="svg_5" d="m137.975,5.76l4.35,13.393l14.082,0l-11.392,8.277l4.352,13.392l-11.392,-8.277l-11.393,8.277l4.352,-13.392l-11.393,-8.277l14.082,0l4.352,-13.393z"/>
   <path fill="#ffd200" id="svg_6" d="m195.308,21.466l4.35,13.393l14.082,0l-11.392,8.277l4.352,13.392l-11.392,-8.277l-11.394,8.277l4.353,-13.392l-11.393,-8.277l14.082,0l4.352,-13.393z"/>
   <path fill="#ffd200" id="svg_7" d="m237.537,63.686l4.351,13.393l14.082,0l-11.393,8.278l4.353,13.392l-11.393,-8.278l-11.393,8.278l4.352,-13.392l-11.393,-8.278l14.082,0l4.352,-13.393z"/>
   <path fill="#ffd200" id="svg_8" d="m253.17,121.668l4.351,13.393l14.081,0l-11.392,8.277l4.352,13.392l-11.392,-8.278l-11.394,8.278l4.353,-13.392l-11.393,-8.277l14.082,0l4.352,-13.393z"/>
   <path fill="#ffd200" id="svg_9" d="m237.476,179.852l4.35,13.392l14.082,0l-11.392,8.278l4.352,13.391l-11.392,-8.277l-11.394,8.277l4.353,-13.391l-11.393,-8.278l14.082,0l4.352,-13.392z"/>
   <path fill="#ffd200" id="svg_10" d="m195.259,221.791l4.35,13.393l14.082,0l-11.392,8.277l4.352,13.392l-11.392,-8.278l-11.394,8.278l4.353,-13.392l-11.393,-8.277l14.082,0l4.352,-13.393z"/>
   <path fill="#ffd200" id="svg_11" d="m138.114,237.136l4.351,13.392l14.082,0l-11.393,8.278l4.353,13.391l-11.393,-8.277l-11.393,8.277l4.352,-13.391l-11.392,-8.278l14.082,0l4.351,-13.392z"/>
   <path fill="#ffd200" id="svg_12" d="m80.12,221.494l4.351,13.393l14.082,0l-11.393,8.277l4.353,13.392l-11.393,-8.278l-11.393,8.278l4.352,-13.392l-11.393,-8.277l14.083,0l4.351,-13.393z"/>
   <path fill="#ffd200" id="svg_13" d="m38.75,179.566l4.351,13.392l14.082,0l-11.393,8.277l4.353,13.392l-11.393,-8.277l-11.393,8.277l4.353,-13.392l-11.393,-8.277l14.082,0l4.351,-13.392z"/>
   <path fill="#ffd200" id="svg_14" d="m22.907,120.602l4.393,13.525l14.222,0l-11.506,8.359l4.396,13.524l-11.505,-8.359l-11.507,8.359l4.396,-13.524l-11.505,-8.359l14.221,0l4.395,-13.525z"/>
  </g>
 </g>
</svg>